<?xml version="1.0" standalone="no"?>
<!DOCTYPE svg PUBLIC "-//W3C//DTD SVG 20010904//EN"
 "http://www.w3.org/TR/2001/REC-SVG-20010904/DTD/svg10.dtd">
<svg version="1.0" xmlns="http://www.w3.org/2000/svg"
 width="513.000000pt" height="513.000000pt" viewBox="0 0 513.000000 513.000000"
 preserveAspectRatio="xMidYMid meet">
<metadata>
Created by potrace 1.14, written by Peter Selinger 2001-2017
</metadata>
<g transform="translate(0.000000,513.000000) scale(0.100000,-0.100000)"
fill="#000000" stroke="none">
<path d="M662 5118 c-204 -22 -384 -132 -499 -304 -60 -91 -99 -192 -110 -284
-9 -72 -9 -1849 0 -1920 32 -267 270 -526 528 -575 13 -3 38 -8 54 -11 17 -4
47 -6 68 -6 36 2 42 -5 39 -48 0 -3 -3 -48 -7 -100 -3 -52 -8 -117 -10 -145
-2 -27 -7 -95 -10 -150 -3 -55 -8 -118 -10 -140 -2 -22 -7 -92 -10 -156 l-7
-115 35 -37 c47 -50 98 -53 157 -9 33 25 369 310 380 323 3 3 82 70 175 150
94 79 175 149 180 154 6 6 39 36 75 66 36 29 67 56 70 59 3 3 34 30 70 59 36
30 71 62 78 70 11 14 104 16 845 17 827 1 832 1 912 23 251 70 430 248 502
499 14 51 16 161 18 996 1 516 -2 965 -7 998 -10 78 -48 186 -90 256 -43 74
-157 188 -233 234 -67 41 -184 83 -260 94 -65 9 -2850 11 -2933 2z m2943 -242
c156 -41 273 -151 325 -306 l22 -65 1 -930 c0 -843 -2 -935 -17 -988 -50 -172
-187 -298 -363 -332 -15 -3 -405 -6 -867 -6 -461 0 -848 -4 -861 -9 -17 -7
-153 -115 -175 -140 -14 -16 -720 -620 -725 -620 -3 0 -3 24 -1 53 4 45 10
126 21 292 1 22 6 90 11 150 18 250 4 271 -186 274 -127 2 -149 5 -220 33
-138 53 -248 181 -281 326 -7 31 -10 351 -10 964 -1 827 1 923 16 975 26 88
61 149 120 208 57 58 108 88 195 116 52 17 142 18 1500 18 1172 1 1454 -2
1495 -13z"/>
<path d="M1540 4095 l0 -225 50 0 c56 0 52 -9 52 111 l0 66 63 0 c34 0 68 3
74 7 6 4 11 22 11 41 l0 34 -72 3 -73 3 0 50 0 50 40 2 c22 1 57 2 78 2 36 1
37 2 37 41 l0 40 -130 0 -130 0 0 -225z"/>
<path d="M2386 4175 c-34 -23 -36 -23 -36 -5 0 17 -7 20 -50 20 l-50 0 0 -160
0 -160 50 0 50 0 0 98 c0 116 5 136 33 149 23 11 60 2 72 -17 4 -6 7 -60 7
-120 l0 -110 49 0 c56 0 51 -12 50 134 0 54 -5 113 -11 132 -21 64 -100 83
-164 39z"/>
<path d="M1862 4054 l3 -136 34 -30 c30 -27 39 -30 78 -25 27 3 54 14 69 28
l24 22 0 -21 c0 -20 5 -22 50 -22 l50 0 0 160 0 160 -50 0 -50 0 0 -107 c-1
-120 -11 -145 -55 -145 -49 0 -57 19 -58 141 l0 111 -49 0 -50 0 4 -136z"/>
<path d="M1090 3579 c-183 -34 -284 -167 -293 -384 -8 -189 63 -349 182 -409
102 -52 268 -59 369 -16 83 36 165 143 174 227 3 24 -3 28 -95 59 -88 30 -99
31 -103 16 -29 -95 -78 -142 -150 -142 -99 0 -145 77 -142 240 2 152 49 223
150 224 56 1 95 -23 121 -76 l18 -36 72 18 c40 10 85 21 100 24 26 6 28 10 22
34 -20 81 -103 172 -183 202 -61 23 -172 32 -242 19z"/>
<path d="M1645 3570 c-1 -3 -2 -187 -1 -410 l1 -405 98 0 c54 0 101 2 105 5 4
3 7 84 7 181 1 149 3 180 18 202 31 48 109 48 127 1 6 -14 10 -107 10 -207 l0
-182 105 0 c63 0 105 4 106 10 6 72 -1 430 -10 462 -14 52 -55 101 -98 119
-66 28 -162 12 -217 -37 -19 -16 -36 -29 -38 -29 -3 0 -4 65 -4 145 1 122 -1
145 -14 146 -64 4 -192 3 -195 -1z"/>
<path d="M3203 3512 l-103 -57 2 -48 c0 -26 -2 -50 -5 -53 -3 -3 -20 -6 -39
-7 l-33 -2 0 -80 0 -80 38 -3 c20 -2 37 -6 37 -10 0 -4 2 -77 4 -162 3 -192
18 -230 104 -258 30 -10 152 -9 197 2 11 2 23 5 26 5 7 1 5 25 -7 118 -5 41
-5 41 -37 32 -35 -10 -66 -4 -68 14 -1 7 -3 67 -4 135 l-2 122 58 0 59 0 0 84
0 85 -27 -1 c-16 0 -42 0 -60 1 l-31 1 2 106 c1 58 -1 107 -4 109 -3 2 -51
-22 -107 -53z"/>
<path d="M2502 3347 c-58 -17 -111 -61 -134 -114 -11 -25 -18 -47 -15 -49 7
-7 46 -13 128 -20 73 -6 77 -6 84 16 9 28 60 49 104 44 41 -5 57 -17 63 -48 4
-18 -1 -27 -18 -35 -27 -12 -123 -37 -174 -46 -146 -24 -214 -91 -203 -199 8
-75 45 -120 117 -141 27 -8 66 -15 86 -15 53 0 135 27 168 55 35 30 42 31 42
8 1 -41 15 -47 115 -48 93 -1 96 0 89 19 -4 12 -9 116 -13 231 -6 200 -7 212
-31 255 -42 74 -88 93 -239 96 -78 2 -142 -1 -169 -9z m233 -334 c-2 -10 -4
-30 -4 -45 -1 -45 -49 -89 -103 -95 -37 -4 -49 -2 -66 15 -23 23 -22 56 2 80
15 15 130 59 158 61 10 1 15 -5 13 -16z"/>
<path d="M4530 3803 c-1 -5 -2 -384 -3 -843 -3 -768 -5 -839 -21 -890 -62
-191 -216 -344 -402 -396 -53 -15 -146 -17 -878 -18 l-819 -2 -338 -345 -338
-344 742 -5 743 -5 175 -155 c96 -85 176 -157 179 -160 3 -3 59 -52 125 -110
66 -57 138 -121 160 -142 43 -39 65 -58 137 -119 25 -22 62 -54 80 -72 49 -45
164 -146 195 -170 17 -14 41 -21 66 -21 32 0 45 7 69 34 l30 33 -7 111 c-3 61
-8 129 -10 151 -1 22 -6 87 -10 145 -3 58 -8 121 -10 140 -2 19 -6 87 -10 150
-4 63 -8 122 -10 132 -5 24 7 29 69 34 78 5 108 11 181 38 228 83 394 279 437
516 11 59 13 248 12 910 -1 928 1 900 -69 1043 -81 165 -238 302 -404 351 -62
18 -71 19 -71 9z"/>
</g>
</svg>
